<?xml version="1.0" standalone="no"?>
<!DOCTYPE svg PUBLIC "-//W3C//DTD SVG 20010904//EN"
 "http://www.w3.org/TR/2001/REC-SVG-20010904/DTD/svg10.dtd">
<svg version="1.0" xmlns="http://www.w3.org/2000/svg"
 width="500.000000pt" height="500.000000pt" viewBox="0 0 500.000000 500.000000"
 preserveAspectRatio="xMidYMid meet">
<metadata>
Created by potrace 1.15, written by Peter Selinger 2001-2017
</metadata>
<g transform="translate(0.000000,500.000000) scale(0.100000,-0.100000)"
fill="#eeeee" stroke="none">
<path d="M2255 4990 c-614 -68 -1130 -318 -1550 -751 -380 -392 -608 -863
-686 -1419 -18 -123 -18 -526 -1 -635 25 -157 55 -292 89 -405 200 -663 666
-1212 1288 -1516 241 -117 465 -189 715 -229 142 -23 507 -31 653 -15 449 49
877 219 1244 493 139 104 376 341 480 480 274 367 444 795 493 1244 16 146 8
511 -15 653 -83 519 -334 1011 -705 1380 -388 387 -846 615 -1414 707 -109 17
-478 25 -591 13z m15 -1304 c0 -2 -20 -60 -45 -130 -24 -69 -42 -126 -39 -126
2 0 31 14 64 30 33 17 62 30 65 30 3 0 5 -146 5 -325 l0 -325 618 2 617 3 0
105 0 105 -528 3 -527 2 2 268 3 267 618 3 617 2 0 -140 c0 -77 -2 -140 -5
-140 -3 0 -40 27 -82 60 l-76 60 -448 0 -449 0 0 -105 0 -105 450 0 451 0 79
-67 80 -66 0 -381 1 -381 74 -294 73 -294 -51 -159 -51 -158 -233 0 c-128 0
-233 3 -233 8 0 4 12 39 26 78 l26 71 78 17 78 17 30 68 30 68 -85 96 c-47 54
-89 97 -92 97 -4 0 -64 -80 -133 -178 l-126 -178 -11 -78 c-6 -42 -11 -79 -11
-82 0 -2 -108 -4 -241 -4 l-241 0 6 27 c4 16 13 51 21 79 l15 52 65 17 c35 10
71 25 78 34 19 22 348 603 344 608 -2 2 -102 -45 -223 -104 l-219 -108 -215
-5 -214 -5 -78 -110 c-42 -60 -77 -116 -78 -123 0 -7 27 -55 60 -108 33 -52
60 -102 60 -111 0 -9 -5 -44 -12 -79 l-11 -64 -249 0 c-184 0 -248 3 -248 12
0 6 7 38 16 70 16 54 21 61 63 83 92 47 90 32 24 198 -32 81 -60 147 -63 147
-3 -1 -43 -53 -90 -117 -47 -64 -109 -149 -137 -188 l-53 -71 19 -67 20 -67
-225 0 c-123 0 -224 1 -224 3 0 1 13 42 29 91 28 86 31 90 73 112 40 20 56 41
142 177 53 85 96 159 96 164 0 12 -70 177 -78 184 -4 4 -38 -8 -77 -27 -38
-18 -71 -29 -73 -24 -2 5 46 189 107 410 61 220 111 407 111 415 0 7 -23 46
-50 86 l-50 73 22 25 c13 14 26 30 30 35 3 4 40 -12 81 -38 43 -27 80 -44 88
-40 8 4 41 35 73 70 l59 64 -224 0 -225 0 -17 -35 c-15 -32 -20 -35 -63 -35
-38 0 -45 3 -40 18 3 9 10 37 16 62 6 25 13 53 16 62 5 16 29 18 265 20 l261
3 -33 24 c-32 24 -32 24 -133 10 -56 -8 -107 -14 -115 -14 -10 0 -26 35 -47
103 l-32 102 143 0 142 0 9 33 10 32 209 5 210 5 105 42 c98 39 130 48 130 39z"/>
</g>
</svg>
